<svg width="24" height="24" viewBox="0 0 24 24" fill="none" xmlns="http://www.w3.org/2000/svg">
<path d="M12.0001 3C15.3799 3 18.3387 4.63287 20.8546 7.31641C21.7187 8.23818 22.4695 9.22221 23.1056 10.207C23.4044 10.6697 23.6305 11.0567 23.7823 11.3379L23.8946 11.5527C24.0354 11.8343 24.0354 12.1657 23.8946 12.4473C23.7853 12.6659 23.601 12.9981 23.3438 13.415L23.1056 13.793C22.4695 14.7778 21.7187 15.7618 20.8546 16.6836C18.3387 19.3671 15.3799 21 12.0001 21C8.62032 21 5.66141 19.3671 3.14559 16.6836C2.28146 15.7618 1.53067 14.7778 0.894615 13.793C0.595801 13.3303 0.369684 12.9433 0.217857 12.6621L0.105552 12.4473C-0.035184 12.1658 -0.035184 11.8342 0.105552 11.5527C0.214879 11.3341 0.399168 11.0019 0.656333 10.585L0.894615 10.207C1.53067 9.22221 2.28146 8.23818 3.14559 7.31641C5.66141 4.63287 8.62032 3.00003 12.0001 3ZM12.0001 5C9.25499 5.00003 6.77617 6.36729 4.60458 8.68359C3.82831 9.51162 3.14906 10.403 2.5743 11.293C2.47415 11.4481 2.38117 11.5977 2.29501 11.7402L2.14071 12L2.29501 12.2598L2.42977 12.4795L2.5743 12.707C3.14906 13.597 3.82831 14.4884 4.60458 15.3164C6.77617 17.6327 9.25499 19 12.0001 19C14.7452 19 17.224 17.6327 19.3956 15.3164C20.1719 14.4884 20.8511 13.597 21.4259 12.707C21.526 12.5519 21.619 12.4023 21.7052 12.2598L21.8585 12L21.7052 11.7402L21.5704 11.5205L21.4259 11.293C20.8511 10.403 20.1719 9.51162 19.3956 8.68359C17.224 6.36729 14.7452 5 12.0001 5ZM12.0001 8C14.2092 8 16.0001 9.79086 16.0001 12C16.0001 14.2091 14.2092 16 12.0001 16C9.79094 16 8.00008 14.2091 8.00008 12C8.00008 9.79086 9.79094 8 12.0001 8ZM12.0001 10C10.8955 10 10.0001 10.8954 10.0001 12C10.0001 13.1046 10.8955 14 12.0001 14C13.1047 14 14.0001 13.1046 14.0001 12C14.0001 10.8954 13.1047 10 12.0001 10Z" fill="#7D8592"/>
</svg>