<svg width="20" height="20" viewBox="0 0 20 20" fill="none" xmlns="http://www.w3.org/2000/svg">
<path d="M10 0C15.5228 0 20 4.47715 20 10C20 15.5228 15.5228 20 10 20C4.47715 20 0 15.5228 0 10C0 4.47715 4.47715 0 10 0ZM10 9C9.44772 9 9 9.44772 9 10V14L9.00684 14.1162C9.0646 14.6135 9.48716 15 10 15C10.5523 15 11 14.5523 11 14V10L10.9932 9.88379C10.9354 9.38645 10.5128 9 10 9ZM9.88379 5.00684C9.38645 5.0646 9 5.48716 9 6C9 6.55228 9.44772 7 10 7L10.127 6.99316C10.6241 6.93525 11.0098 6.51272 11.0098 6C11.0098 5.44772 10.5621 5 10.0098 5L9.88379 5.00684Z" fill="#3F8CFF"/>
</svg>
