<svg width="500" height="373" viewBox="0 0 500 373" fill="none" xmlns="http://www.w3.org/2000/svg">
<g clip-path="url(#clip0_717_998)">
<mask id="mask0_717_998" style="mask-type:luminance" maskUnits="userSpaceOnUse" x="0" y="327" width="500" height="1">
<path fill-rule="evenodd" clip-rule="evenodd" d="M0 327H500V328H0V327Z" fill="white"/>
</mask>
<g mask="url(#mask0_717_998)">
<path fill-rule="evenodd" clip-rule="evenodd" d="M0 327.625H500V327.375H0V327.625Z" fill="#E4E4DE"/>
</g>
<path fill-rule="evenodd" clip-rule="evenodd" d="M397 343.625H450V343.375H397V343.625Z" fill="#E4E4DE"/>
<path fill-rule="evenodd" clip-rule="evenodd" d="M273 340.625H332V340.375H273V340.625Z" fill="#E4E4DE"/>
<path fill-rule="evenodd" clip-rule="evenodd" d="M380 339.625H399V339.375H380V339.625Z" fill="#E4E4DE"/>
<path fill-rule="evenodd" clip-rule="evenodd" d="M100 336.625H143V336.375H100V336.625Z" fill="#D0D9E6"/>
<path fill-rule="evenodd" clip-rule="evenodd" d="M79 336.625H94V336.375H79V336.625Z" fill="#D0D9E6"/>
<path fill-rule="evenodd" clip-rule="evenodd" d="M131 340.625H185V340.375H131V340.625Z" fill="#D0D9E6"/>
<path fill-rule="evenodd" clip-rule="evenodd" d="M43.708 0.25C40.698 0.25 38.25 2.699 38.25 5.708V277.139C38.25 280.149 40.698 282.597 43.708 282.597H236.807C239.815 282.597 242.264 280.149 242.264 277.139V5.708C242.264 2.699 239.815 0.25 236.807 0.25H43.708ZM236.807 282.847H43.708C40.56 282.847 38 280.287 38 277.139V5.708C38 2.561 40.56 0 43.708 0H236.807C239.953 0 242.514 2.561 242.514 5.708V277.139C242.514 280.287 239.953 282.847 236.807 282.847Z" fill="#D0D9E6"/>
<path fill-rule="evenodd" clip-rule="evenodd" d="M260.707 0.25C257.698 0.25 255.25 2.699 255.25 5.708V277.139C255.25 280.149 257.698 282.597 260.707 282.597H453.806C456.815 282.597 459.264 280.149 459.264 277.139V5.708C459.264 2.699 456.815 0.25 453.806 0.25H260.707ZM453.806 282.847H260.707C257.56 282.847 255 280.287 255 277.139V5.708C255 2.561 257.56 0 260.707 0H453.806C456.953 0 459.514 2.561 459.514 5.708V277.139C459.514 280.287 456.953 282.847 453.806 282.847Z" fill="#D0D9E6"/>
<path fill-rule="evenodd" clip-rule="evenodd" d="M117.873 267H57.1272C54.307 267 52 264.778 52 262.063V259.937C52 257.221 54.307 255 57.1272 255H117.873C120.692 255 123 257.221 123 259.937V262.063C123 264.778 120.692 267 117.873 267Z" fill="#E3ECFA"/>
<path fill-rule="evenodd" clip-rule="evenodd" d="M71 267H61.1752L50 327H59.8248L71 267Z" fill="#DAE2F0"/>
<path fill-rule="evenodd" clip-rule="evenodd" d="M92 267H81.746L76 327H86.254L92 267Z" fill="#DAE2F0"/>
<path fill-rule="evenodd" clip-rule="evenodd" d="M103 267H112.825L124 327H114.176L103 267Z" fill="#DAE2F0"/>
<path fill-rule="evenodd" clip-rule="evenodd" d="M197 220H431V16H197V220Z" fill="#DAE2F0"/>
<path fill-rule="evenodd" clip-rule="evenodd" d="M200 220H437V16H200V220Z" fill="#E3ECFA"/>
<path fill-rule="evenodd" clip-rule="evenodd" d="M197 223H431V219H197V223Z" fill="#DDDED8"/>
<path fill-rule="evenodd" clip-rule="evenodd" d="M204 223H441V219H204V223Z" fill="#DAE2F0"/>
<path fill-rule="evenodd" clip-rule="evenodd" d="M210 213H428V22H210V213Z" fill="#FCFEFF"/>
<path fill-rule="evenodd" clip-rule="evenodd" d="M280 213L320.904 22H348L307.096 213H280Z" fill="#FFFFFE"/>
<path fill-rule="evenodd" clip-rule="evenodd" d="M248 213L288.903 22H316L275.097 213H248Z" fill="#FFFFFE"/>
<path fill-rule="evenodd" clip-rule="evenodd" d="M215 22.5158V200.484C215 200.769 215.404 201 215.903 201H217.098C217.597 201 218 200.769 218 200.484V22.5158C218 22.2305 217.597 22 217.098 22H215.903C215.404 22 215 22.2305 215 22.5158Z" fill="#EAEAE5"/>
<path fill-rule="evenodd" clip-rule="evenodd" d="M350 213L391.327 22H402L360.673 213H350Z" fill="#FFFFFE"/>
<path fill-rule="evenodd" clip-rule="evenodd" d="M427 213H428V22H427V213Z" fill="#DAE2F0"/>
<path fill-rule="evenodd" clip-rule="evenodd" d="M440 29H438V24H439.222L440 29Z" fill="#E3ECFA"/>
<path fill-rule="evenodd" clip-rule="evenodd" d="M428 29H438V24H428V29Z" fill="#DAE2F0"/>
<path fill-rule="evenodd" clip-rule="evenodd" d="M426.981 29.461H399.949L401.123 24H426.981V29.461ZM389.348 29.461H378.266L378 24H390.522L389.348 29.461Z" fill="#E3ECFA"/>
<path fill-rule="evenodd" clip-rule="evenodd" d="M399.804 29H389L390.196 24H401L399.804 29Z" fill="#EBF3FF"/>
<path fill-rule="evenodd" clip-rule="evenodd" d="M427 29H428V24H427V29Z" fill="#CCD3E0"/>
<path fill-rule="evenodd" clip-rule="evenodd" d="M440 48H438V43H439.222L440 48Z" fill="#E3ECFA"/>
<path fill-rule="evenodd" clip-rule="evenodd" d="M428 48H438V43H428V48Z" fill="#DAE2F0"/>
<path fill-rule="evenodd" clip-rule="evenodd" d="M427.069 48.461H396.008L397.182 43H427.069V48.461ZM385.408 48.461H379.266L379 43H386.582L385.408 48.461Z" fill="#E3ECFA"/>
<path fill-rule="evenodd" clip-rule="evenodd" d="M395.803 48H385L386.197 43H397L395.803 48Z" fill="#EBF3FF"/>
<path fill-rule="evenodd" clip-rule="evenodd" d="M427 48H428V43H427V48Z" fill="#CCD3E0"/>
<path fill-rule="evenodd" clip-rule="evenodd" d="M440 67H438V62H439.222L440 67Z" fill="#E3ECFA"/>
<path fill-rule="evenodd" clip-rule="evenodd" d="M428 67H438V62H428V67Z" fill="#DAE2F0"/>
<path fill-rule="evenodd" clip-rule="evenodd" d="M427.156 67.461H392.067L393.241 62H427.156V67.461ZM381.466 67.461H380.266L380 62H382.641L381.466 67.461Z" fill="#E3ECFA"/>
<path fill-rule="evenodd" clip-rule="evenodd" d="M391.804 67H381L382.197 62H393L391.804 67Z" fill="#EBF3FF"/>
<path fill-rule="evenodd" clip-rule="evenodd" d="M427 67H428V62H427V67Z" fill="#CCD3E0"/>
<path fill-rule="evenodd" clip-rule="evenodd" d="M440 86H438V81H439.222L440 86Z" fill="#E3ECFA"/>
<path fill-rule="evenodd" clip-rule="evenodd" d="M428 86H438V81H428V86Z" fill="#DAE2F0"/>
<path fill-rule="evenodd" clip-rule="evenodd" d="M427 86H388L389.171 81H427V86Z" fill="#E3ECFA"/>
<path fill-rule="evenodd" clip-rule="evenodd" d="M387.868 86H381.256L381 81H389L387.868 86Z" fill="#EBF3FF"/>
<path fill-rule="evenodd" clip-rule="evenodd" d="M427 86H428V81H427V86Z" fill="#CCD3E0"/>
<path fill-rule="evenodd" clip-rule="evenodd" d="M440 104H438V99H439.222L440 104Z" fill="#E3ECFA"/>
<path fill-rule="evenodd" clip-rule="evenodd" d="M428 104H438V99H428V104Z" fill="#DAE2F0"/>
<path fill-rule="evenodd" clip-rule="evenodd" d="M427 104H384L385.17 99H427V104Z" fill="#E3ECFA"/>
<path fill-rule="evenodd" clip-rule="evenodd" d="M382.952 104H381.237L381 99H384L382.952 104Z" fill="#EBF3FF"/>
<path fill-rule="evenodd" clip-rule="evenodd" d="M427 104H428V99H427V104Z" fill="#CCD3E0"/>
<path fill-rule="evenodd" clip-rule="evenodd" d="M440 123H438V118H439.222L440 123Z" fill="#E3ECFA"/>
<path fill-rule="evenodd" clip-rule="evenodd" d="M428 123H438V118H428V123Z" fill="#DAE2F0"/>
<path fill-rule="evenodd" clip-rule="evenodd" d="M426 123H384.114C383.618 122.229 382.932 121.193 382.107 120.027L382 118H426V123Z" fill="#E3ECFA"/>
<path fill-rule="evenodd" clip-rule="evenodd" d="M427 123H428V118H427V123Z" fill="#CCD3E0"/>
<path fill-rule="evenodd" clip-rule="evenodd" d="M440 39H438V34H439.222L440 39Z" fill="#E3ECFA"/>
<path fill-rule="evenodd" clip-rule="evenodd" d="M428 39H438V34H428V39Z" fill="#DAE2F0"/>
<path fill-rule="evenodd" clip-rule="evenodd" d="M426.525 39.461H397.479L398.653 34H426.525V39.461ZM386.878 39.461H378.266L378 34H388.052L386.878 39.461Z" fill="#E3ECFA"/>
<path fill-rule="evenodd" clip-rule="evenodd" d="M397.804 39H387L388.196 34H399L397.804 39Z" fill="#EBF3FF"/>
<path fill-rule="evenodd" clip-rule="evenodd" d="M427 39H428V34H427V39Z" fill="#CCD3E0"/>
<path fill-rule="evenodd" clip-rule="evenodd" d="M440 58H438V53H439.222L440 58Z" fill="#E3ECFA"/>
<path fill-rule="evenodd" clip-rule="evenodd" d="M428 58H438V53H428V58Z" fill="#DAE2F0"/>
<path fill-rule="evenodd" clip-rule="evenodd" d="M426.612 58.461H393.537L394.711 53H426.612V58.461ZM382.936 58.461H379.265L379 53H384.111L382.936 58.461Z" fill="#E3ECFA"/>
<path fill-rule="evenodd" clip-rule="evenodd" d="M393.804 58H383L384.197 53H395L393.804 58Z" fill="#EBF3FF"/>
<path fill-rule="evenodd" clip-rule="evenodd" d="M427 58H428V53H427V58Z" fill="#CCD3E0"/>
<path fill-rule="evenodd" clip-rule="evenodd" d="M440 76H438V71H439.222L440 76Z" fill="#E3ECFA"/>
<path fill-rule="evenodd" clip-rule="evenodd" d="M428 76H438V71H428V76Z" fill="#DAE2F0"/>
<path fill-rule="evenodd" clip-rule="evenodd" d="M426.7 76.461H389.597L390.771 71H426.7V76.461ZM380.031 71.646L380 71H380.17L380.031 71.646Z" fill="#E3ECFA"/>
<path fill-rule="evenodd" clip-rule="evenodd" d="M389.798 76H380.241L380 71.5915L380.142 71H391L389.798 76Z" fill="#EBF3FF"/>
<path fill-rule="evenodd" clip-rule="evenodd" d="M427 76H428V71H427V76Z" fill="#CCD3E0"/>
<path fill-rule="evenodd" clip-rule="evenodd" d="M440 95H438V90H439.222L440 95Z" fill="#E3ECFA"/>
<path fill-rule="evenodd" clip-rule="evenodd" d="M428 95H438V90H428V95Z" fill="#DAE2F0"/>
<path fill-rule="evenodd" clip-rule="evenodd" d="M427 95H386L387.17 90H427V95Z" fill="#E3ECFA"/>
<path fill-rule="evenodd" clip-rule="evenodd" d="M385.792 95H381.274L381 90H387L385.792 95Z" fill="#EBF3FF"/>
<path fill-rule="evenodd" clip-rule="evenodd" d="M427 95H428V90H427V95Z" fill="#CCD3E0"/>
<path fill-rule="evenodd" clip-rule="evenodd" d="M440 114H438V109H439.222L440 114Z" fill="#E3ECFA"/>
<path fill-rule="evenodd" clip-rule="evenodd" d="M428 114H438V109H428V114Z" fill="#DAE2F0"/>
<path fill-rule="evenodd" clip-rule="evenodd" d="M427 114H382.103L382 112.09L382.731 109H427V114Z" fill="#E3ECFA"/>
<path fill-rule="evenodd" clip-rule="evenodd" d="M382.219 112L382.055 109H382.945L382.219 112Z" fill="#E9E9E4"/>
<path fill-rule="evenodd" clip-rule="evenodd" d="M427 114H428V109H427V114Z" fill="#CCD3E0"/>
<path fill-rule="evenodd" clip-rule="evenodd" d="M440 133H438V128H439.222L440 133Z" fill="#E3ECFA"/>
<path fill-rule="evenodd" clip-rule="evenodd" d="M428 133H438V128H428V133Z" fill="#DAE2F0"/>
<path fill-rule="evenodd" clip-rule="evenodd" d="M426 133H387.041C386.659 132.309 386.265 131.628 385.862 130.953C385.273 129.942 384.647 128.962 384 128H426V133Z" fill="#E3ECFA"/>
<path fill-rule="evenodd" clip-rule="evenodd" d="M427 133H428V128H427V133Z" fill="#CCD3E0"/>
<path fill-rule="evenodd" clip-rule="evenodd" d="M400 328H431V235H400V328Z" fill="#DDDED8"/>
<path fill-rule="evenodd" clip-rule="evenodd" d="M411.962 328H431V317H392L411.962 328Z" fill="#E3ECFA"/>
<path fill-rule="evenodd" clip-rule="evenodd" d="M307 328H338V235H307V328Z" fill="#DAE2F0"/>
<path fill-rule="evenodd" clip-rule="evenodd" d="M322 326H431V235H322V326Z" fill="#E3ECFA"/>
<path fill-rule="evenodd" clip-rule="evenodd" d="M341.038 328H322V317H361L341.038 328Z" fill="#E3ECFA"/>
<path fill-rule="evenodd" clip-rule="evenodd" d="M336 292H416V245H336V292Z" fill="#FCFEFF"/>
<path fill-rule="evenodd" clip-rule="evenodd" d="M336 319H416V297H336V319Z" fill="#FCFEFF"/>
<path fill-rule="evenodd" clip-rule="evenodd" d="M382.793 247H368.207C365.884 247 364 245.21 364 243H387C387 245.21 385.116 247 382.793 247Z" fill="#E4E4DE"/>
<path fill-rule="evenodd" clip-rule="evenodd" d="M382.793 299H368.207C365.884 299 364 297.209 364 295H387C387 297.209 385.117 299 382.793 299Z" fill="#E3ECFA"/>
<path fill-rule="evenodd" clip-rule="evenodd" d="M282 328H313V235H282V328Z" fill="#E3ECFA"/>
<path fill-rule="evenodd" clip-rule="evenodd" d="M294.962 328H314V317H275L294.962 328Z" fill="#E3ECFA"/>
<path fill-rule="evenodd" clip-rule="evenodd" d="M190 328H221V235H190V328Z" fill="#DAE2F0"/>
<path fill-rule="evenodd" clip-rule="evenodd" d="M204 326H313V235H204V326Z" fill="#E3ECFA"/>
<path fill-rule="evenodd" clip-rule="evenodd" d="M223.039 328H204V317H243L223.039 328Z" fill="#E3ECFA"/>
<path fill-rule="evenodd" clip-rule="evenodd" d="M219 292H299V245H219V292Z" fill="#FCFEFF"/>
<path fill-rule="evenodd" clip-rule="evenodd" d="M219 319H299V297H219V319Z" fill="#FCFEFF"/>
<path fill-rule="evenodd" clip-rule="evenodd" d="M265.793 247H251.207C248.883 247 247 245.21 247 243H270C270 245.21 268.117 247 265.793 247Z" fill="#E4E4DE"/>
<path fill-rule="evenodd" clip-rule="evenodd" d="M265.793 299H251.207C248.883 299 247 297.209 247 295H270C270 297.209 268.117 299 265.793 299Z" fill="#E3ECFA"/>
<path fill-rule="evenodd" clip-rule="evenodd" d="M204 235H430V231H204V235Z" fill="#DAE2F0"/>
<path fill-rule="evenodd" clip-rule="evenodd" d="M190 235H205V231H190V235Z" fill="#D4D5CF"/>
<path fill-rule="evenodd" clip-rule="evenodd" d="M84.6786 240.721C83.2324 204.199 81.6897 167.883 84.8479 149.564L90 146C90 146 88.8707 149.415 88.2789 205.372C87.8665 244.267 87.3855 242.154 87.3424 240.041C87.3229 239.113 87.3886 238.186 87.5804 240.721H84.6786Z" fill="#DDDED8"/>
<path fill-rule="evenodd" clip-rule="evenodd" d="M92.5274 110.729C100.223 90.5542 118.153 71.0725 137.633 63.1035C145.281 59.9744 134.262 128.776 106.533 133.211C92.9923 135.376 88.7767 170.246 86.4936 187C85.719 154.048 84.8329 130.905 92.5274 110.729Z" fill="#DDDED8"/>
<path fill-rule="evenodd" clip-rule="evenodd" d="M90.4442 161.604C95.8516 153.025 104.693 141.012 117.61 141C132.252 140.987 119.439 165.114 102.228 172.82C93.824 176.583 86.8187 188.526 85 196C85.1511 180.852 85.0358 170.183 90.4442 161.604Z" fill="#DDDED8"/>
<path fill-rule="evenodd" clip-rule="evenodd" d="M77.5085 136.292C68.0788 119.581 47.0618 102.776 24.686 95.1309C15.9013 92.1288 15.0349 141.631 62.3988 153.477C77.6959 157.302 83.8285 184.384 87 198C86.7358 171.555 86.9372 153.003 77.5085 136.292Z" fill="#DAE2F0"/>
<path fill-rule="evenodd" clip-rule="evenodd" d="M83.4865 175.934C77.4192 165.318 60.9252 160.128 46.092 161.12C40.2672 161.508 39.631 183.299 72.0262 191.714C81.8519 194.266 85.8166 211.35 87.8569 220C87.6868 203.199 89.5539 186.552 83.4865 175.934Z" fill="#DAE2F0"/>
<path fill-rule="evenodd" clip-rule="evenodd" d="M83.1369 119.14C78.4414 104.138 64.6012 90.692 51.8983 85.1338C46.9112 82.9517 45.378 107.828 72.6406 132.182C80.9094 139.57 83.5167 161.09 84.8644 172C85.4827 152.522 87.8325 134.141 83.1369 119.14Z" fill="#DAE2F0"/>
<path fill-rule="evenodd" clip-rule="evenodd" d="M86.5 255C76.5025 255 68.2403 254.271 67.6656 240.748L66 223H107L105.334 240.748C104.761 254.271 96.4985 255 86.5 255Z" fill="#E3ECFA"/>
<path fill-rule="evenodd" clip-rule="evenodd" d="M105.835 230H65.1648L64 222H107L105.835 230Z" fill="#E3ECFA"/>
<path fill-rule="evenodd" clip-rule="evenodd" d="M444 361.501C444 367.852 357.144 373 250 373C142.857 373 56 367.852 56 361.501C56 355.149 142.857 350 250 350C357.144 350 444 355.149 444 361.501Z" fill="#E3ECFA"/>
<path fill-rule="evenodd" clip-rule="evenodd" d="M72.9904 63L72 43.0486L73.0096 43L74 62.9514L72.9904 63Z" fill="#3F8CFF"/>
<path fill-rule="evenodd" clip-rule="evenodd" d="M73.3252 80L73 70.0483L73.6748 70L74 79.9507L73.3252 80Z" fill="#3F8CFF"/>
<path fill-rule="evenodd" clip-rule="evenodd" d="M86.5239 247C85.579 247 84.801 246.257 84.755 245.311L74.0041 23.8621C73.9551 22.8494 74.7611 22 75.7729 22H375.477C376.421 22 377.199 22.7432 377.245 23.6898L387.996 245.139C388.045 246.152 387.239 247 386.227 247H86.5239Z" fill="#3F8CFF"/>
<path fill-rule="evenodd" clip-rule="evenodd" d="M366.764 243.367H90.1831C89.2371 243.367 88.4581 242.625 88.4131 241.681L78.0021 27.859C77.9531 26.848 78.7601 26 79.7731 26H372.583C373.529 26 374.308 26.742 374.354 27.687L378.614 115.172C376.533 112.555 374.201 110.113 371.958 108.804C370.359 107.747 368.465 107.085 366.405 106.972C366.264 106.964 366.124 106.957 365.983 106.95C362.345 103.437 363.062 96.145 364.161 90.881L353.125 97.034C353.963 100.565 354.058 104.842 351.181 106.838C350.631 106.87 350.11 106.907 349.623 106.951C347.816 107.115 346.041 107.376 344.459 107.655C344.06 107.726 343.668 107.819 343.286 107.934C341.733 108.366 340.016 109.235 338.154 110.637C330.511 116.393 324.836 128.587 324.836 128.587L326.648 129.581C324.965 131.435 323.216 133.247 321.407 135.026C319.426 136.963 317.441 138.802 315.285 140.818C315.227 140.824 315.167 140.83 315.103 140.834C315.033 140.838 314.96 140.84 314.884 140.84C314.414 140.84 313.834 140.764 313.209 140.605C312.193 140.353 311.076 139.936 309.94 139.412C310.005 138.166 310.062 136.926 310.11 135.705L319.24 135.406C319.769 130.497 319.045 122.322 317.821 113.854C316.776 104.985 314.986 94.886 313.08 84.597L303.971 85.175L301.714 38.812C301.689 38.324 301.261 37.948 300.801 37.948C300.789 37.948 300.776 37.949 300.763 37.949C300.263 37.974 299.877 38.399 299.901 38.899L302.16 85.29L264.835 87.661C264.95 88.166 265.064 88.671 265.177 89.174H265.176C265.178 89.182 265.18 89.19 265.182 89.199C265.361 89.997 265.537 90.793 265.711 91.586C267.162 98.288 268.283 104.824 269.094 111.073L263.009 110.12C263.106 128.098 261.173 144.556 258.027 157.49L306.115 166.508L309.233 230.556C309.257 231.041 309.658 231.419 310.138 231.419L310.183 231.418C310.683 231.394 311.07 230.968 311.046 230.468L307.66 160.937C308.334 157.429 308.867 153.226 309.273 148.795C309.595 148.943 309.925 149.085 310.264 149.222C311.499 149.71 312.871 150.12 314.441 150.3C314.877 150.351 315.334 150.379 315.805 150.379C317.017 150.379 318.324 150.192 319.614 149.728L320.287 149.485L321.11 148.808C323.429 146.899 326.053 144.817 328.485 142.634C330.616 140.751 332.699 138.781 334.699 136.71C334.712 137.792 334.735 138.913 334.769 140.077C334.782 140.63 334.802 141.2 334.825 141.784C335.11 149.631 335.858 159.284 337.307 171.14H344.78L342.209 179.771L347.579 181.37C347.557 181.517 347.534 181.664 347.512 181.811L353.296 183.072L353.573 183.155C356.716 197.592 362.015 221.887 365.587 238.049C366.005 239.943 366.4 241.726 366.764 243.367ZM160.008 209.112L161.052 230.556C161.077 231.041 161.477 231.419 161.958 231.419L162.003 231.418C162.503 231.394 162.889 230.968 162.865 230.468L161.816 208.928L187.162 206.353C187.034 195.056 181.224 168.82 177.779 158.987L159.491 161.16L157.924 128.986L163.612 128.68C161.054 111.674 159.194 95.337 158.65 80.259L155.558 80.378L153.534 38.812C153.509 38.324 153.089 37.948 152.622 37.948C152.609 37.948 152.597 37.949 152.584 37.949C152.084 37.974 151.697 38.399 151.721 38.899L153.744 80.448L111.468 82.08C111.364 95.911 112.535 114.587 115.319 131.283L156.112 129.084L157.684 161.375L131.062 164.538C136.03 182.056 136.238 197.933 137.616 211.388L160.008 209.112ZM175.885 95.373L175.883 143.501L224.428 146.43L224.43 98.302L175.885 95.373ZM383.367 212.804C382.013 205.059 380.64 197.428 379.443 190.859L382.341 191.722L383.367 212.804ZM379.867 140.919L375.281 139.919C375.324 138.491 375.38 137.035 375.453 135.558L376.222 134.773C377.549 136.758 378.784 138.77 379.861 140.801L379.867 140.919ZM315.934 140.652L316.052 140.579C316.02 140.604 315.981 140.628 315.934 140.652Z" fill="#F4F9FD"/>
<path d="M104.706 45.1123L102.103 45.1577L102.079 43.79L108.798 43.6727L108.822 45.0405L106.218 45.0859L106.342 52.2128L104.831 52.2392L104.706 45.1123ZM108.175 49.3004C108.167 48.8445 108.239 48.4311 108.393 48.0604C108.554 47.6815 108.773 47.3577 109.048 47.0888C109.323 46.82 109.652 46.6102 110.033 46.4595C110.415 46.3089 110.821 46.2297 111.253 46.2222C111.685 46.2147 112.094 46.2795 112.481 46.4168C112.867 46.5541 113.203 46.7523 113.487 47.0113C113.772 47.2704 113.997 47.5865 114.164 47.9597C114.338 48.3247 114.43 48.7352 114.438 49.1911C114.446 49.647 114.369 50.0644 114.207 50.4433C114.054 50.814 113.839 51.1338 113.564 51.4027C113.289 51.6715 112.96 51.8813 112.579 52.032C112.197 52.1826 111.791 52.2618 111.359 52.2693C110.927 52.2768 110.518 52.212 110.131 52.0747C109.745 51.9374 109.409 51.7392 109.125 51.4802C108.84 51.2211 108.611 50.909 108.436 50.544C108.27 50.1709 108.182 49.7563 108.175 49.3004ZM109.614 49.2753C109.618 49.4992 109.658 49.7146 109.734 49.9213C109.817 50.1279 109.932 50.3099 110.079 50.4673C110.234 50.6247 110.416 50.7495 110.626 50.8419C110.835 50.9342 111.072 50.9781 111.336 50.9735C111.6 50.9689 111.835 50.9168 112.042 50.8172C112.248 50.7175 112.422 50.5865 112.563 50.424C112.712 50.2614 112.821 50.0754 112.889 49.8662C112.965 49.6569 113.002 49.4402 112.998 49.2162C112.994 48.9923 112.95 48.777 112.866 48.5704C112.791 48.3637 112.676 48.1817 112.521 48.0244C112.374 47.8669 112.196 47.742 111.986 47.6496C111.777 47.5573 111.54 47.5134 111.276 47.518C111.012 47.5226 110.777 47.5747 110.57 47.6743C110.364 47.774 110.186 47.9051 110.037 48.0677C109.896 48.2302 109.787 48.4161 109.711 48.6255C109.643 48.8347 109.61 49.0513 109.614 49.2753ZM119.37 43.4881L122.717 43.4297C123.277 43.4199 123.819 43.4985 124.342 43.6654C124.864 43.8243 125.329 44.0762 125.735 44.4212C126.141 44.7662 126.469 45.2045 126.718 45.7362C126.967 46.26 127.098 46.8818 127.111 47.6017C127.123 48.3296 126.995 48.9639 126.724 49.5047C126.461 50.0374 126.113 50.4835 125.679 50.8431C125.253 51.1946 124.774 51.463 124.241 51.6484C123.716 51.8256 123.197 51.9186 122.686 51.9276L119.518 51.9828L119.37 43.4881ZM122.134 50.569C122.606 50.5607 123.049 50.501 123.463 50.3898C123.885 50.2704 124.25 50.096 124.558 49.8666C124.866 49.6292 125.105 49.3289 125.274 48.9659C125.452 48.5948 125.536 48.1492 125.527 47.6293C125.518 47.1174 125.43 46.6789 125.264 46.3137C125.098 45.9486 124.868 45.6565 124.577 45.4376C124.293 45.2105 123.954 45.0484 123.56 44.9512C123.174 44.846 122.749 44.7974 122.285 44.8055L120.905 44.8295L121.006 50.5887L122.134 50.569ZM128.152 48.9517C128.144 48.4958 128.217 48.0824 128.37 47.7117C128.532 47.3328 128.75 47.009 129.025 46.7401C129.301 46.4713 129.629 46.2615 130.011 46.1108C130.392 45.9602 130.799 45.881 131.231 45.8735C131.663 45.866 132.072 45.9308 132.458 46.0681C132.845 46.2054 133.18 46.4036 133.465 46.6626C133.749 46.9217 133.975 47.2378 134.141 47.611C134.316 47.976 134.407 48.3865 134.415 48.8424C134.423 49.2983 134.346 49.7157 134.185 50.0946C134.031 50.4653 133.817 50.7851 133.541 51.054C133.266 51.3228 132.938 51.5326 132.556 51.6833C132.175 51.8339 131.768 51.913 131.336 51.9206C130.904 51.9281 130.495 51.8633 130.109 51.726C129.722 51.5887 129.387 51.3905 129.102 51.1315C128.818 50.8724 128.588 50.5603 128.414 50.1953C128.247 49.8222 128.16 49.4076 128.152 48.9517ZM129.592 48.9266C129.596 49.1505 129.635 49.3659 129.711 49.5726C129.795 49.7792 129.91 49.9612 130.057 50.1186C130.211 50.276 130.394 50.4008 130.603 50.4932C130.813 50.5855 131.05 50.6294 131.314 50.6248C131.578 50.6202 131.813 50.5681 132.019 50.4684C132.225 50.3688 132.399 50.2378 132.54 50.0753C132.689 49.9127 132.798 49.7267 132.867 49.5175C132.943 49.3081 132.979 49.0915 132.975 48.8675C132.971 48.6435 132.928 48.4283 132.844 48.2217C132.768 48.015 132.653 47.833 132.498 47.6757C132.352 47.5182 132.173 47.3933 131.964 47.3009C131.754 47.2086 131.517 47.1647 131.253 47.1693C130.989 47.1739 130.754 47.226 130.548 47.3256C130.342 47.4253 130.164 47.5564 130.015 47.719C129.874 47.8815 129.765 48.0674 129.688 48.2768C129.62 48.486 129.588 48.7026 129.592 48.9266Z" fill="#3F8CFF"/>
<path d="M160.108 44.0338L161.62 44.0074L161.768 52.5021L160.256 52.5285L160.108 44.0338ZM163.399 46.7128L164.767 46.6889L164.783 47.6128L164.807 47.6123C164.938 47.322 165.141 47.0704 165.418 46.8576C165.694 46.6367 166.072 46.5221 166.552 46.5137C166.936 46.507 167.261 46.5654 167.527 46.6887C167.801 46.812 168.024 46.9761 168.196 47.1811C168.367 47.3862 168.492 47.624 168.568 47.8947C168.645 48.1654 168.686 48.4488 168.691 48.7447L168.755 52.3802L167.315 52.4053L167.264 49.4897C167.261 49.3298 167.25 49.1539 167.231 48.9622C167.211 48.7626 167.164 48.5794 167.089 48.4126C167.022 48.2378 166.916 48.0956 166.77 47.9861C166.624 47.8687 166.426 47.8121 166.179 47.8164C165.939 47.8206 165.735 47.8642 165.569 47.9471C165.41 48.0299 165.276 48.1402 165.166 48.2782C165.065 48.416 164.992 48.5733 164.947 48.7501C164.902 48.9269 164.881 49.1113 164.884 49.3033L164.939 52.4468L163.499 52.4719L163.399 46.7128ZM173.923 43.7927L176.778 43.7428C177.186 43.7357 177.579 43.7689 177.956 43.8423C178.342 43.9156 178.68 44.0457 178.971 44.2326C179.262 44.4116 179.495 44.6596 179.668 44.9766C179.85 45.2855 179.945 45.6759 179.953 46.1478C179.962 46.6837 179.878 47.1172 179.7 47.4484C179.521 47.7796 179.278 48.0399 178.969 48.2293C178.66 48.4107 178.298 48.537 177.884 48.6083C177.477 48.6794 177.049 48.7189 176.601 48.7267L175.522 48.7455L175.583 52.261L174.071 52.2874L173.923 43.7927ZM176.411 47.4338C176.627 47.43 176.851 47.4181 177.082 47.3981C177.314 47.378 177.525 47.3263 177.716 47.243C177.914 47.1595 178.072 47.0367 178.189 46.8747C178.315 46.7125 178.375 46.4874 178.37 46.1994C178.365 45.9355 178.305 45.7285 178.191 45.5785C178.076 45.4204 177.93 45.303 177.752 45.226C177.575 45.1411 177.378 45.0886 177.162 45.0683C176.945 45.0481 176.737 45.0397 176.537 45.0432L175.457 45.0621L175.499 47.4497L176.411 47.4338ZM181.173 46.4025L182.613 46.3774L182.629 47.2893L182.653 47.2888C182.807 46.9501 183.031 46.6862 183.323 46.497C183.616 46.3079 183.955 46.21 184.338 46.2033C184.426 46.2017 184.511 46.2083 184.591 46.2229C184.679 46.2373 184.767 46.2558 184.856 46.2782L184.88 47.67C184.76 47.6401 184.639 47.6182 184.519 47.6043C184.407 47.5823 184.294 47.5722 184.182 47.5742C183.846 47.5801 183.576 47.6488 183.37 47.7804C183.172 47.9039 183.018 48.0466 182.909 48.2085C182.808 48.3703 182.739 48.5315 182.702 48.6922C182.672 48.8527 182.659 48.973 182.66 49.053L182.714 52.1365L181.274 52.1616L181.173 46.4025ZM185.388 49.2094C185.38 48.7535 185.453 48.3401 185.607 47.9694C185.768 47.5905 185.986 47.2667 186.262 46.9978C186.537 46.729 186.866 46.5192 187.247 46.3685C187.628 46.2178 188.035 46.1387 188.467 46.1312C188.899 46.1237 189.308 46.1885 189.695 46.3258C190.081 46.4631 190.417 46.6612 190.701 46.9203C190.986 47.1794 191.211 47.4955 191.378 47.8687C191.552 48.2337 191.643 48.6441 191.651 49.1001C191.659 49.556 191.583 49.9734 191.421 50.3523C191.268 50.723 191.053 51.0428 190.778 51.3117C190.502 51.5805 190.174 51.7903 189.793 51.9409C189.411 52.0916 189.004 52.1707 188.573 52.1783C188.141 52.1858 187.731 52.1209 187.345 51.9837C186.958 51.8464 186.623 51.6482 186.338 51.3891C186.054 51.1301 185.824 50.818 185.65 50.453C185.483 50.0799 185.396 49.6653 185.388 49.2094ZM186.828 49.1843C186.832 49.4082 186.872 49.6236 186.947 49.8303C187.031 50.0369 187.146 50.2189 187.293 50.3763C187.448 50.5337 187.63 50.6585 187.84 50.7508C188.049 50.8432 188.286 50.8871 188.55 50.8825C188.814 50.8779 189.049 50.8258 189.255 50.7261C189.462 50.6265 189.635 50.4955 189.777 50.333C189.926 50.1703 190.034 49.9844 190.103 49.7752C190.179 49.5658 190.215 49.3492 190.211 49.1252C190.208 48.9012 190.164 48.686 190.08 48.4794C190.005 48.2727 189.889 48.0907 189.735 47.9333C189.588 47.7759 189.41 47.651 189.2 47.5586C188.99 47.4663 188.754 47.4224 188.49 47.427C188.226 47.4316 187.991 47.4837 187.784 47.5833C187.578 47.6829 187.4 47.8141 187.251 47.9767C187.11 48.1392 187.001 48.3251 186.925 48.5345C186.856 48.7437 186.824 48.9603 186.828 49.1843ZM198.876 46.0935L198.968 51.3367C198.977 51.8566 198.921 52.3257 198.8 52.7439C198.68 53.17 198.486 53.5295 198.219 53.8222C197.96 54.1227 197.628 54.3566 197.223 54.5237C196.818 54.6908 196.335 54.7792 195.775 54.789C195.239 54.7983 194.73 54.7392 194.248 54.6116C193.766 54.484 193.318 54.2438 192.903 53.891L193.747 52.7001C194.039 52.959 194.343 53.1577 194.657 53.2963C194.972 53.4348 195.333 53.5005 195.741 53.4934C196.085 53.4874 196.372 53.4343 196.602 53.3343C196.84 53.2341 197.026 53.0989 197.159 52.9285C197.3 52.758 197.397 52.5523 197.448 52.3114C197.508 52.0783 197.536 51.8178 197.531 51.5298L197.523 51.1099L197.499 51.1103C197.296 51.3939 197.024 51.6107 196.683 51.7607C196.341 51.9026 195.99 51.9768 195.63 51.9831C195.198 51.9906 194.805 51.9215 194.451 51.7756C194.096 51.6218 193.788 51.4151 193.528 51.1556C193.275 50.896 193.078 50.5874 192.935 50.2298C192.793 49.8723 192.718 49.4895 192.711 49.0816C192.704 48.6576 192.761 48.2606 192.883 47.8904C193.004 47.5202 193.187 47.197 193.43 46.9207C193.673 46.6444 193.965 46.4273 194.306 46.2693C194.656 46.1032 195.054 46.0162 195.502 46.0084C195.91 46.0013 196.291 46.0746 196.646 46.2285C197.001 46.3823 197.285 46.6334 197.499 46.9817L197.523 46.9813L197.508 46.1174L198.876 46.0935ZM195.825 47.299C195.569 47.3034 195.338 47.3515 195.131 47.4431C194.925 47.5267 194.747 47.6458 194.597 47.8005C194.456 47.9469 194.343 48.1289 194.259 48.3464C194.182 48.5558 194.146 48.7885 194.151 49.0444C194.155 49.2764 194.199 49.4917 194.282 49.6902C194.374 49.8887 194.497 50.0626 194.651 50.2119C194.806 50.3612 194.988 50.478 195.198 50.5624C195.407 50.6468 195.632 50.6868 195.872 50.6827C196.136 50.678 196.371 50.6299 196.577 50.5383C196.792 50.4466 196.97 50.3274 197.111 50.1809C197.261 50.0263 197.373 49.8443 197.45 49.635C197.526 49.4256 197.562 49.2009 197.558 48.961C197.549 48.457 197.39 48.0518 197.081 47.7451C196.771 47.4385 196.353 47.2897 195.825 47.299ZM200.506 46.0651L201.946 46.0399L201.962 46.9518L201.986 46.9514C202.14 46.6126 202.364 46.3487 202.656 46.1596C202.949 45.9704 203.288 45.8725 203.671 45.8658C203.759 45.8643 203.844 45.8708 203.924 45.8854C204.012 45.8999 204.1 45.9183 204.189 45.9408L204.213 47.3326C204.093 47.3027 203.972 47.2808 203.852 47.2669C203.74 47.2448 203.627 47.2348 203.515 47.2367C203.179 47.2426 202.909 47.3113 202.703 47.4429C202.505 47.5664 202.351 47.7091 202.242 47.871C202.141 48.0328 202.072 48.1941 202.035 48.3547C202.005 48.5153 201.992 48.6355 201.993 48.7155L202.047 51.7991L200.607 51.8242L200.506 46.0651ZM206.17 49.3507C206.225 49.7818 206.399 50.1148 206.691 50.3498C206.983 50.5847 207.333 50.6986 207.741 50.6915C208.101 50.6852 208.4 50.608 208.638 50.4598C208.883 50.3035 209.096 50.1118 209.276 49.8846L210.321 50.6465C209.992 51.0683 209.622 51.3708 209.209 51.554C208.796 51.7373 208.361 51.8329 207.906 51.8408C207.474 51.8484 207.064 51.7835 206.678 51.6462C206.291 51.5089 205.956 51.3108 205.671 51.0517C205.387 50.7926 205.157 50.4806 204.983 50.1156C204.816 49.7424 204.729 49.3279 204.721 48.8719C204.713 48.416 204.786 48.0027 204.94 47.6319C205.101 47.2531 205.319 46.9292 205.595 46.6604C205.87 46.3915 206.198 46.1817 206.58 46.0311C206.961 45.8804 207.368 45.8013 207.8 45.7937C208.2 45.7868 208.565 45.8524 208.896 45.9906C209.234 46.1208 209.521 46.3158 209.758 46.5757C210.002 46.8355 210.192 47.1602 210.327 47.5499C210.47 47.9315 210.545 48.3742 210.554 48.8781L210.561 49.2741L206.17 49.3507ZM209.103 48.2194C209.087 47.7956 208.949 47.4659 208.689 47.2304C208.429 46.9869 208.071 46.8692 207.615 46.8771C207.183 46.8847 206.841 47.0147 206.589 47.2671C206.346 47.5194 206.2 47.854 206.151 48.2709L209.103 48.2194ZM214.948 47.4092C214.661 47.0222 214.282 46.8328 213.81 46.841C213.618 46.8444 213.431 46.8956 213.248 46.9948C213.066 47.094 212.977 47.2516 212.981 47.4676C212.984 47.6435 213.062 47.7702 213.215 47.8475C213.369 47.9249 213.562 47.9895 213.795 48.0415C214.028 48.0934 214.277 48.1491 214.542 48.2084C214.815 48.2597 215.068 48.3473 215.302 48.4712C215.537 48.5871 215.731 48.7518 215.887 48.9651C216.043 49.1784 216.124 49.473 216.131 49.849C216.137 50.1929 216.066 50.4862 215.918 50.7288C215.778 50.9633 215.589 51.1546 215.352 51.3028C215.122 51.4508 214.86 51.5594 214.565 51.6285C214.271 51.6977 213.975 51.7349 213.679 51.74C213.231 51.7479 212.818 51.6911 212.44 51.5696C212.062 51.4482 211.722 51.2221 211.42 50.8913L212.364 49.9747C212.552 50.1795 212.751 50.348 212.961 50.4804C213.179 50.6046 213.44 50.664 213.744 50.6587C213.848 50.6569 213.956 50.643 214.068 50.6171C214.179 50.5911 214.283 50.5493 214.378 50.4917C214.473 50.434 214.547 50.3647 214.602 50.2837C214.664 50.1946 214.695 50.0941 214.693 49.9821C214.689 49.7821 214.611 49.6355 214.457 49.5421C214.303 49.4488 214.11 49.3762 213.877 49.3242C213.644 49.2643 213.391 49.2127 213.118 49.1694C212.853 49.118 212.604 49.0384 212.37 48.9305C212.136 48.8145 211.941 48.6539 211.786 48.4486C211.63 48.2433 211.549 47.9566 211.542 47.5887C211.537 47.2687 211.596 46.9917 211.72 46.7575C211.852 46.5151 212.024 46.3161 212.238 46.1603C212.451 46.0046 212.697 45.8883 212.976 45.8114C213.254 45.7345 213.538 45.6936 213.826 45.6886C214.21 45.6819 214.591 45.7432 214.969 45.8726C215.347 45.994 215.655 46.2127 215.893 46.5286L214.948 47.4092ZM220.279 47.3162C219.992 46.9291 219.613 46.7397 219.141 46.748C218.949 46.7513 218.762 46.8026 218.58 46.9018C218.397 47.001 218.308 47.1586 218.312 47.3745C218.315 47.5505 218.393 47.6771 218.546 47.7545C218.7 47.8318 218.893 47.8965 219.126 47.9484C219.359 48.0003 219.608 48.056 219.873 48.1154C220.146 48.1666 220.399 48.2542 220.634 48.3781C220.868 48.4941 221.063 48.6587 221.218 48.872C221.374 49.0853 221.455 49.38 221.462 49.7559C221.468 50.0999 221.397 50.3931 221.249 50.6358C221.109 50.8702 220.921 51.0616 220.683 51.2097C220.454 51.3577 220.192 51.4663 219.897 51.5355C219.602 51.6046 219.306 51.6418 219.01 51.647C218.563 51.6548 218.149 51.598 217.771 51.4766C217.393 51.3552 217.053 51.1291 216.751 50.7983L217.695 49.8817C217.883 50.0864 218.082 50.255 218.292 50.3873C218.511 50.5115 218.772 50.571 219.076 50.5657C219.18 50.5639 219.287 50.55 219.399 50.524C219.511 50.4981 219.614 50.4563 219.709 50.3986C219.804 50.3409 219.879 50.2716 219.933 50.1906C219.996 50.1015 220.026 50.001 220.024 49.889C220.02 49.6891 219.942 49.5424 219.788 49.4491C219.635 49.3557 219.441 49.2831 219.208 49.2312C218.975 49.1712 218.722 49.1196 218.45 49.0764C218.185 49.025 217.935 48.9453 217.701 48.8374C217.467 48.7215 217.272 48.5608 217.117 48.3555C216.961 48.1502 216.88 47.8636 216.874 47.4956C216.868 47.1757 216.927 46.8986 217.051 46.6644C217.183 46.4221 217.356 46.223 217.569 46.0673C217.782 45.9115 218.028 45.7952 218.307 45.7184C218.586 45.6415 218.869 45.6005 219.157 45.5955C219.541 45.5888 219.922 45.6502 220.3 45.7796C220.678 45.901 220.986 46.1196 221.224 46.4356L220.279 47.3162Z" fill="#3F8CFF"/>
<path d="M237.331 43.9601L238.843 43.9337L238.991 52.4284L237.48 52.4548L237.331 43.9601ZM240.622 46.6391L241.99 46.6152L242.006 47.539L242.03 47.5386C242.161 47.2483 242.365 46.9967 242.641 46.7838C242.917 46.563 243.296 46.4484 243.775 46.44C244.159 46.4333 244.484 46.4916 244.751 46.615C245.025 46.7382 245.248 46.9024 245.419 47.1074C245.591 47.3124 245.715 47.5503 245.792 47.821C245.869 48.0917 245.91 48.375 245.915 48.671L245.978 52.3064L244.538 52.3316L244.487 49.416C244.485 49.256 244.474 49.0802 244.454 48.8885C244.435 48.6888 244.388 48.5056 244.313 48.3389C244.246 48.1641 244.139 48.0219 243.993 47.9124C243.847 47.7949 243.65 47.7384 243.402 47.7427C243.162 47.7469 242.959 47.7905 242.792 47.8734C242.634 47.9562 242.5 48.0665 242.39 48.2044C242.288 48.3422 242.215 48.4995 242.17 48.6763C242.125 48.8532 242.105 49.0376 242.108 49.2295L242.163 52.373L240.723 52.3982L240.622 46.6391ZM251.146 43.7189L254.098 43.6674C254.506 43.6603 254.899 43.6934 255.276 43.7669C255.661 43.8322 256.003 43.9542 256.302 44.133C256.602 44.3118 256.842 44.5557 257.023 44.8645C257.205 45.1734 257.3 45.5678 257.308 46.0478C257.319 46.6637 257.156 47.1826 256.819 47.6045C256.49 48.0263 256.011 48.2867 255.381 48.3858L257.702 52.1018L255.878 52.1336L253.848 48.5685L252.744 48.5878L252.807 52.1873L251.295 52.2136L251.146 43.7189ZM253.897 47.2715C254.113 47.2677 254.329 47.2559 254.544 47.2362C254.76 47.2084 254.955 47.157 255.13 47.0819C255.312 46.9987 255.458 46.8802 255.568 46.7262C255.677 46.5643 255.729 46.3434 255.724 46.0634C255.72 45.8154 255.664 45.6164 255.558 45.4662C255.451 45.3161 255.313 45.2064 255.144 45.1374C254.974 45.0603 254.786 45.0116 254.577 44.9913C254.377 44.9708 254.181 44.9622 253.989 44.9655L252.681 44.9884L252.721 47.292L253.897 47.2715ZM259.831 49.6883C259.886 50.1194 260.06 50.4524 260.352 50.6873C260.644 50.9223 260.994 51.0362 261.402 51.0291C261.762 51.0228 262.061 50.9456 262.298 50.7974C262.544 50.6411 262.756 50.4493 262.936 50.2222L263.982 50.984C263.653 51.4058 263.282 51.7084 262.869 51.8916C262.457 52.0748 262.022 52.1704 261.566 52.1784C261.134 52.1859 260.725 52.121 260.339 51.9838C259.952 51.8465 259.617 51.6483 259.332 51.3892C259.048 51.1302 258.818 50.8181 258.644 50.4531C258.477 50.08 258.39 49.6654 258.382 49.2095C258.374 48.7536 258.447 48.3402 258.6 47.9695C258.762 47.5906 258.98 47.2668 259.256 46.9979C259.531 46.7291 259.859 46.5193 260.241 46.3686C260.622 46.2179 261.029 46.1388 261.461 46.1313C261.861 46.1243 262.226 46.19 262.556 46.3282C262.895 46.4583 263.182 46.6533 263.419 46.9132C263.663 47.173 263.853 47.4978 263.988 47.8875C264.13 48.269 264.206 48.7118 264.215 49.2157L264.222 49.6116L259.831 49.6883ZM262.763 48.5569C262.748 48.1331 262.61 47.8035 262.35 47.568C262.09 47.3245 261.732 47.2067 261.276 47.2147C260.844 47.2222 260.502 47.3522 260.25 47.6046C260.007 47.8569 259.86 48.1915 259.812 48.6085L262.763 48.5569ZM264.729 46.2183L266.301 46.1908L267.907 50.1954L267.931 50.195L269.409 46.1366L270.884 46.1108L268.717 51.9095L267.182 51.9363L264.729 46.2183ZM271.755 46.0956L273.195 46.0705L273.295 51.8296L271.856 51.8548L271.755 46.0956ZM271.517 44.1435C271.513 43.9115 271.593 43.7101 271.758 43.5392C271.931 43.3601 272.15 43.2683 272.414 43.2637C272.678 43.2591 272.899 43.3392 273.078 43.5041C273.265 43.6609 273.36 43.8633 273.365 44.1112C273.369 44.3592 273.281 44.5688 273.1 44.74C272.926 44.903 272.708 44.9868 272.444 44.9914C272.18 44.996 271.958 44.9159 271.78 44.751C271.608 44.578 271.521 44.3755 271.517 44.1435ZM276.059 49.405C276.114 49.8361 276.288 50.1691 276.58 50.4041C276.872 50.639 277.222 50.7529 277.63 50.7458C277.99 50.7395 278.289 50.6623 278.526 50.5141C278.772 50.3578 278.984 50.1661 279.164 49.9389L280.21 50.7008C279.881 51.1226 279.51 51.4251 279.097 51.6083C278.685 51.7916 278.25 51.8872 277.794 51.8951C277.362 51.9027 276.953 51.8378 276.567 51.7005C276.18 51.5632 275.845 51.3651 275.56 51.106C275.276 50.8469 275.046 50.5349 274.872 50.1699C274.705 49.7967 274.618 49.3822 274.61 48.9262C274.602 48.4703 274.675 48.057 274.828 47.6862C274.99 47.3074 275.208 46.9835 275.484 46.7147C275.759 46.4458 276.087 46.236 276.469 46.0854C276.85 45.9347 277.257 45.8556 277.689 45.848C278.089 45.8411 278.454 45.9067 278.784 46.0449C279.123 46.1751 279.41 46.3701 279.647 46.63C279.891 46.8898 280.081 47.2145 280.216 47.6042C280.358 47.9858 280.434 48.4285 280.443 48.9324L280.45 49.3284L276.059 49.405ZM278.991 48.2737C278.976 47.8499 278.838 47.5202 278.578 47.2847C278.318 47.0412 277.96 46.9235 277.504 46.9314C277.072 46.939 276.73 47.069 276.478 47.3214C276.235 47.5737 276.088 47.9083 276.04 48.3252L278.991 48.2737ZM280.957 45.935L282.517 45.9078L283.835 49.9174L283.859 49.917L284.953 45.8653L286.513 45.838L287.831 49.8476L287.855 49.8472L288.984 45.7949L290.436 45.7696L288.581 51.5628L287.153 51.5877L285.717 47.6762L285.693 47.6766L284.549 51.6332L283.062 51.6592L280.957 45.935Z" fill="#3F8CFF"/>
<path d="M321.266 43.7518L324.613 43.6933C325.173 43.6836 325.715 43.7621 326.238 43.929C326.76 44.0879 327.225 44.3399 327.631 44.6848C328.037 45.0298 328.365 45.4681 328.614 45.9999C328.863 46.5236 328.994 47.1454 329.007 47.8653C329.019 48.5932 328.891 49.2275 328.62 49.7683C328.357 50.301 328.009 50.7471 327.575 51.1068C327.149 51.4583 326.67 51.7267 326.137 51.912C325.612 52.0892 325.094 52.1822 324.582 52.1912L321.414 52.2465L321.266 43.7518ZM324.03 50.8326C324.502 50.8244 324.945 50.7646 325.359 50.6534C325.781 50.534 326.146 50.3596 326.454 50.1302C326.762 49.8928 327.001 49.5926 327.17 49.2296C327.348 48.8584 327.432 48.4129 327.423 47.8929C327.414 47.381 327.326 46.9425 327.16 46.5773C326.994 46.2122 326.764 45.9201 326.473 45.7012C326.189 45.4741 325.85 45.312 325.456 45.2149C325.07 45.1096 324.645 45.061 324.181 45.0691L322.801 45.0932L322.902 50.8523L324.03 50.8326ZM330.048 49.2153C330.04 48.7594 330.113 48.3461 330.266 47.9753C330.428 47.5965 330.646 47.2726 330.921 47.0037C331.197 46.7349 331.525 46.5251 331.907 46.3745C332.288 46.2238 332.695 46.1447 333.127 46.1371C333.559 46.1296 333.968 46.1945 334.354 46.3317C334.741 46.469 335.076 46.6672 335.361 46.9263C335.645 47.1853 335.871 47.5014 336.037 47.8746C336.212 48.2396 336.303 48.6501 336.311 49.106C336.319 49.5619 336.242 49.9793 336.081 50.3582C335.927 50.7289 335.713 51.0487 335.437 51.3176C335.162 51.5864 334.834 51.7962 334.452 51.9469C334.071 52.0976 333.664 52.1767 333.232 52.1842C332.8 52.1917 332.391 52.1269 332.005 51.9896C331.618 51.8523 331.283 51.6541 330.998 51.3951C330.714 51.136 330.484 50.824 330.31 50.4589C330.143 50.0858 330.056 49.6713 330.048 49.2153ZM331.488 49.1902C331.492 49.4142 331.531 49.6295 331.607 49.8362C331.691 50.0428 331.806 50.2248 331.953 50.3823C332.107 50.5396 332.29 50.6644 332.499 50.7568C332.709 50.8491 332.946 50.893 333.21 50.8884C333.474 50.8838 333.709 50.8317 333.915 50.7321C334.121 50.6325 334.295 50.5014 334.436 50.3389C334.585 50.1763 334.694 49.9904 334.763 49.7811C334.839 49.5718 334.875 49.3551 334.871 49.1311C334.867 48.9072 334.824 48.6919 334.74 48.4853C334.664 48.2786 334.549 48.0966 334.394 47.9393C334.248 47.7818 334.069 47.6569 333.86 47.5646C333.65 47.4722 333.413 47.4283 333.149 47.4329C332.885 47.4375 332.65 47.4896 332.444 47.5893C332.238 47.6889 332.06 47.82 331.911 47.9826C331.77 48.1451 331.661 48.331 331.584 48.5404C331.516 48.7496 331.484 48.9662 331.488 49.1902ZM337.609 46.2029L338.977 46.179L338.993 47.1029L339.017 47.1025C339.148 46.8121 339.351 46.5606 339.628 46.3477C339.904 46.1268 340.282 46.0122 340.762 46.0039C341.146 45.9972 341.471 46.0555 341.737 46.1789C342.011 46.3021 342.234 46.4662 342.406 46.6713C342.577 46.8763 342.701 47.1142 342.778 47.3849C342.855 47.6556 342.896 47.9389 342.901 48.2349L342.964 51.8703L341.525 51.8954L341.474 48.9799C341.471 48.8199 341.46 48.6441 341.441 48.4524C341.421 48.2527 341.374 48.0695 341.299 47.9028C341.232 47.7279 341.125 47.5858 340.979 47.4763C340.833 47.3588 340.636 47.3022 340.388 47.3066C340.148 47.3108 339.945 47.3543 339.779 47.4372C339.62 47.52 339.486 47.6304 339.376 47.7683C339.275 47.9061 339.201 48.0634 339.157 48.2402C339.112 48.417 339.091 48.6014 339.094 48.7934L339.149 51.9369L337.709 51.962L337.609 46.2029ZM345.709 49.446C345.765 49.8771 345.939 50.2101 346.231 50.4451C346.523 50.68 346.873 50.7939 347.281 50.7868C347.641 50.7805 347.939 50.7033 348.177 50.5551C348.422 50.3988 348.635 50.2071 348.815 49.9799L349.86 50.7418C349.532 51.1636 349.161 51.4661 348.748 51.6493C348.335 51.8326 347.901 51.9282 347.445 51.9361C347.013 51.9437 346.604 51.8788 346.217 51.7415C345.831 51.6042 345.495 51.4061 345.211 51.147C344.926 50.8879 344.697 50.5759 344.522 50.2109C344.356 49.8377 344.269 49.4232 344.261 48.9672C344.253 48.5113 344.325 48.098 344.479 47.7272C344.64 47.3484 344.859 47.0245 345.134 46.7557C345.41 46.4868 345.738 46.2771 346.119 46.1264C346.501 45.9757 346.907 45.8966 347.339 45.889C347.739 45.8821 348.105 45.9477 348.435 46.086C348.773 46.2161 349.061 46.4111 349.297 46.671C349.542 46.9308 349.732 47.2555 349.866 47.6452C350.009 48.0268 350.085 48.4695 350.094 48.9734L350.101 49.3694L345.709 49.446ZM348.642 48.3147C348.627 47.8909 348.489 47.5612 348.229 47.3257C347.968 47.0822 347.61 46.9645 347.154 46.9724C346.722 46.98 346.381 47.11 346.129 47.3624C345.885 47.6147 345.739 47.9493 345.69 48.3662L348.642 48.3147Z" fill="#3F8CFF"/>
<path fill-rule="evenodd" clip-rule="evenodd" d="M162.104 231C161.629 231 161.234 230.623 161.21 230.139L152.001 38.9485C151.977 38.4497 152.359 38.0258 152.853 38.0008C153.327 37.9799 153.765 38.3609 153.79 38.8617L162.999 230.051C163.023 230.55 162.642 230.975 162.148 230.999L162.104 231Z" fill="#3F8CFF"/>
<path fill-rule="evenodd" clip-rule="evenodd" d="M310.103 231C309.629 231 309.234 230.623 309.21 230.139L300.001 38.9485C299.977 38.4497 300.358 38.0258 300.852 38.0008C301.319 37.9799 301.764 38.3609 301.79 38.8617L310.999 230.051C311.023 230.55 310.641 230.975 310.147 230.999L310.103 231Z" fill="#3F8CFF"/>
<path fill-rule="evenodd" clip-rule="evenodd" d="M236.104 231C235.629 231 235.234 230.623 235.21 230.139L226.001 38.9485C225.977 38.4497 226.358 38.0258 226.853 38.0008C227.34 37.9799 227.765 38.3619 227.79 38.8617L236.999 230.051C237.023 230.55 236.641 230.975 236.147 230.999L236.104 231Z" fill="#3F8CFF"/>
<path fill-rule="evenodd" clip-rule="evenodd" d="M367.093 59H88.9072C88.4061 59 88 58.5524 88 58C88 57.4476 88.4061 57 88.9072 57H367.093C367.594 57 368 57.4476 368 58C368 58.5524 367.594 59 367.093 59Z" fill="#3F8CFF"/>
<path fill-rule="evenodd" clip-rule="evenodd" d="M114.857 131.024C112.073 114.328 110.902 95.652 111.006 81.821L153.282 80.189L155.65 128.825L114.857 131.024ZM157.462 128.727L155.096 80.119L158.188 80C158.732 95.078 160.592 111.415 163.15 128.421L157.462 128.727Z" fill="#DADFE4"/>
<path fill-rule="evenodd" clip-rule="evenodd" d="M156.266 129L154 80.0704L155.736 80L158 128.901L156.266 129Z" fill="#B0C9DF"/>
<path fill-rule="evenodd" clip-rule="evenodd" d="M164 126.397L115.939 129C113.168 112.312 111.439 96.1381 111 80.6037L159.062 78C159.602 93.0716 161.453 109.401 164 126.397Z" fill="#12499A"/>
<path fill-rule="evenodd" clip-rule="evenodd" d="M224.998 146L176 143.074L176.002 95L225 97.9257L224.998 146Z" fill="#DADFE4"/>
<path fill-rule="evenodd" clip-rule="evenodd" d="M223.43 145L175 142.091L175.57 94L224 96.9082L223.43 145Z" fill="#FFFFFE"/>
<path fill-rule="evenodd" clip-rule="evenodd" d="M309.934 135.531C309.964 134.761 309.991 133.998 310.014 133.244L318.324 132.816C318.874 127.716 318.523 121.132 317.645 113.68C318.869 122.148 319.593 130.323 319.064 135.232L309.934 135.531ZM269.292 110.957L268.918 110.899C268.107 104.65 266.986 98.114 265.535 91.412C267.013 98.154 268.303 104.708 269.292 110.957Z" fill="#DADFE4"/>
<path fill-rule="evenodd" clip-rule="evenodd" d="M271.719 135L318.736 132.575C319.942 121.364 316.822 103.006 313.309 84L265 87.0755C269.026 104.857 271.93 121.503 271.719 135Z" fill="#6D5DD3"/>
<path fill-rule="evenodd" clip-rule="evenodd" d="M137.554 211.401C136.176 197.946 135.968 182.069 131 164.551L157.622 161.388L159.946 209.125L137.554 211.401ZM161.754 208.941L159.429 161.173L177.717 159C181.162 168.833 186.972 195.069 187.1 206.366L161.754 208.941Z" fill="#DADFE4"/>
<path fill-rule="evenodd" clip-rule="evenodd" d="M160.25 209L158 161.215L159.749 161L162 208.816L160.25 209Z" fill="#B0C9DF"/>
<path fill-rule="evenodd" clip-rule="evenodd" d="M139.153 210L186.943 204.843C187.534 193.669 183.432 175.645 178.905 157L131 162.652C134.879 180.103 138.63 196.615 139.153 210Z" fill="#FDC748"/>
<path fill-rule="evenodd" clip-rule="evenodd" d="M306.088 166.388L258 157.37C261.146 144.436 263.079 127.978 262.982 110L269.067 110.953C270.291 120.379 270.809 129.155 270.688 136.873L294.895 136.082C295.509 136.919 296.106 137.664 296.755 138.422C297.464 139.255 298.185 140.084 298.948 140.88C300.475 142.471 302.116 143.983 303.94 145.393C304.321 145.68 304.709 145.965 305.107 146.246L306.088 166.388ZM307.633 160.817L306.983 147.474C307.696 147.902 308.445 148.306 309.246 148.675C308.84 153.106 308.307 157.309 307.633 160.817ZM309.913 139.292C309.414 139.062 308.912 138.811 308.413 138.545C307.774 138.21 307.135 137.852 306.496 137.474L306.41 135.705L310.083 135.585C310.035 136.806 309.978 138.046 309.913 139.292ZM304.623 136.316C304.354 136.143 304.085 135.967 303.816 135.79L304.596 135.764L304.623 136.316Z" fill="#DADFE4"/>
<path fill-rule="evenodd" clip-rule="evenodd" d="M306.624 166.708L306.492 166.683L305.511 146.541C306.112 146.964 306.734 147.377 307.387 147.769L308.037 161.112C307.621 163.279 307.151 165.18 306.624 166.708ZM306.9 137.769C306.275 137.399 305.65 137.012 305.027 136.611L305 136.059L306.814 136L306.9 137.769Z" fill="#B0C9DF"/>
<path fill-rule="evenodd" clip-rule="evenodd" d="M270.621 136.92C270.742 129.202 270.224 120.426 269 111L269.374 111.058C270.768 119.858 271.565 128.054 271.451 135.333L296.564 134.041L294.628 135.854C294.695 135.947 294.761 136.038 294.828 136.129L270.621 136.92ZM303.749 135.837C303.633 135.76 303.517 135.683 303.402 135.606C302.537 135.046 301.671 134.438 300.821 133.822L304.423 133.637L304.529 135.811L303.749 135.837ZM306.343 135.752L306.236 133.543L310.096 133.345C310.073 134.099 310.046 134.862 310.016 135.632L306.343 135.752Z" fill="#719CC6"/>
<path fill-rule="evenodd" clip-rule="evenodd" d="M304.11 135L304 133.083L305.889 133L306 134.948L304.11 135Z" fill="#83A9CE"/>
<path fill-rule="evenodd" clip-rule="evenodd" d="M271.085 135C271.199 127.803 270.399 119.7 269 111L309.785 117.29C310.03 120.855 310.074 126.612 309.872 133.035L305.998 133.23L304.178 133.323L300.563 133.506C299.794 132.956 299.038 132.401 298.305 131.864L296.29 133.723L271.085 135Z" fill="#3769A4"/>
<path fill-rule="evenodd" clip-rule="evenodd" d="M259 155.164L305.784 163C309.406 152.567 310.326 134.382 311 115.494L262.805 108C262.902 125.83 262.141 142.336 259 155.164Z" fill="#FFFFFE"/>
<path fill-rule="evenodd" clip-rule="evenodd" d="M372.861 112C373.807 113.013 374.605 113.911 375.421 114.898C376.233 115.862 377.024 116.838 377.803 117.828C379.355 119.808 380.841 121.847 382.246 123.96C383.637 126.088 385.007 128.236 386.221 130.526C387.456 132.803 388.614 135.146 389.563 137.668L389.928 138.604L390.019 138.842L390.133 139.186L390.351 139.877C390.466 140.315 390.561 140.739 390.647 141.158C390.711 141.557 390.785 141.967 390.832 142.353C391.01 143.899 391.022 145.31 390.979 146.675C390.899 149.397 390.537 151.951 390.121 154.461C389.232 159.477 387.959 164.241 386.308 169L381.111 167.788C381.497 163.058 381.851 158.236 381.98 153.592C382.059 151.274 382.025 148.972 381.874 146.837C381.794 145.773 381.652 144.755 381.453 143.903L381.303 143.308L381.138 142.83L380.576 141.668C378.686 137.777 376.183 133.949 373.517 130.237C372.177 128.379 370.767 126.554 369.342 124.742C368.632 123.835 367.905 122.938 367.169 122.057L365 119.488L372.861 112Z" fill="#BE5B52"/>
<path fill-rule="evenodd" clip-rule="evenodd" d="M381.714 166L378 169.86L385.247 174C385.247 174 387.754 170.772 386.772 167.472L381.714 166Z" fill="#BD5B52"/>
<path fill-rule="evenodd" clip-rule="evenodd" d="M373 175.631L380.017 178L385 174.089L377.795 170L373 175.631Z" fill="#BD5B52"/>
<path fill-rule="evenodd" clip-rule="evenodd" d="M392.973 192L347 181.973C349.454 165.844 352.73 150.46 357.027 136L403 146.026C398.94 160.086 395.731 175.645 392.973 192Z" fill="#3769A4"/>
<path fill-rule="evenodd" clip-rule="evenodd" d="M386.691 193L342 179.691L355.309 135L400 148.308L386.691 193Z" fill="#FFFFFE"/>
<path fill-rule="evenodd" clip-rule="evenodd" d="M345.998 82.0276C345.976 82.5798 345.735 83.0148 345.459 82.9996C345.184 82.9863 344.979 82.5265 345.002 81.9743C345.024 81.4221 345.265 80.9861 345.541 81.0003C345.816 81.0156 346.021 81.4754 345.998 82.0276Z" fill="#132529"/>
<path fill-rule="evenodd" clip-rule="evenodd" d="M346 83C346 83 344.52 86.5622 343 88.2449C343.964 89.3259 345.71 88.9288 345.71 88.9288L346 83Z" fill="#A92D2F"/>
<path fill-rule="evenodd" clip-rule="evenodd" d="M348.743 78.9971L348.933 78.9052C349.038 78.7981 349.017 78.6432 348.888 78.5586C347.589 77.7171 346.265 78.0716 346.208 78.0876C346.05 78.1317 345.964 78.2721 346.015 78.4009C346.067 78.5289 346.238 78.5969 346.394 78.5543C346.437 78.5434 347.475 78.2764 348.51 78.9471C348.578 78.9913 348.662 79.0072 348.743 78.9971Z" fill="#132529"/>
<path fill-rule="evenodd" clip-rule="evenodd" d="M364.166 91C363.059 96.1634 362.338 103.316 366 106.762C366 106.762 364.483 112 354.637 112C343.81 112 349.488 107.404 349.488 107.404C354.006 106.042 354.034 101.047 353.056 97.0355L364.166 91Z" fill="#BD5B52"/>
<path fill-rule="evenodd" clip-rule="evenodd" d="M340.089 353.338C339.969 353.338 339.858 353.349 339.759 353.377C339.601 353.419 339.491 353.497 339.422 353.615C339.299 353.826 339.341 353.931 339.384 353.992C339.713 354.457 341.532 354.468 342.872 354.278C342.209 353.936 340.93 353.338 340.089 353.338ZM341.212 354.733C340.289 354.733 339.398 354.605 339.105 354.191C339.002 354.046 338.923 353.799 339.129 353.446C339.244 353.248 339.427 353.114 339.674 353.048C340.875 352.721 343.372 354.155 343.477 354.216L343.559 354.391L343.422 354.531C342.962 354.623 342.072 354.733 341.212 354.733Z" fill="#3769A4"/>
<path fill-rule="evenodd" clip-rule="evenodd" d="M341.781 351.341L341.679 351.347C341.372 351.377 341.35 351.498 341.344 351.538C341.259 352.026 342.412 353.249 343.291 353.781C343.206 353.216 342.965 352.056 342.37 351.563C342.191 351.414 341.997 351.341 341.781 351.341ZM343.499 354.258L343.43 354.243C342.566 353.854 340.866 352.297 341.008 351.484C341.041 351.292 341.18 351.055 341.649 351.007C341.999 350.972 342.313 351.07 342.59 351.3C343.495 352.051 343.664 353.989 343.671 354.071L343.599 354.226L343.499 354.258Z" fill="#3769A4"/>
<path fill-rule="evenodd" clip-rule="evenodd" d="M352 354H344.524L344 337H351.477L352 354Z" fill="#BD5B52"/>
<path fill-rule="evenodd" clip-rule="evenodd" d="M344.287 353H352.054C352.345 353 352.594 353.2 352.653 353.481L353.977 359.736C354.115 360.384 353.609 360.998 352.938 360.986C350.137 360.939 346.09 360.777 342.57 360.777C338.452 360.777 335.855 361 331.026 361C328.107 361 327.334 358.079 328.559 357.815C334.139 356.61 337.722 356.482 342.568 353.549C343.094 353.23 343.674 353 344.287 353Z" fill="#0A1629"/>
<path fill-rule="evenodd" clip-rule="evenodd" d="M369.224 108C376.22 108.073 386 125.276 386 125.276L375.157 136C375.157 136 368.05 132.792 364.101 124.966C359.965 116.766 362.071 107.926 369.224 108Z" fill="#3769A4"/>
<path fill-rule="evenodd" clip-rule="evenodd" d="M375.376 136C375.619 130.863 376.053 125.456 376.772 119.965C376.84 119.448 376.873 118.935 376.874 118.428C376.875 114.551 374.961 111.044 372 109C378.153 112.751 385 125.737 385 125.737L383.493 127.343L375.376 136Z" fill="#3A81EB"/>
<path fill-rule="evenodd" clip-rule="evenodd" d="M336.443 115.018C334.885 122.739 333.767 138.595 337.603 170H375.798C376.091 164.912 373.636 142.71 376.896 118.872C377.776 112.438 372.959 106.617 366.481 106.26C366.341 106.252 366.202 106.245 366.062 106.238C361.186 106.003 354.122 105.848 349.826 106.239C348.033 106.402 346.271 106.661 344.701 106.938C340.552 107.672 337.277 110.886 336.443 115.018Z" fill="#3769A4"/>
<path fill-rule="evenodd" clip-rule="evenodd" d="M376.094 170.43H337.608C336.159 158.574 335.411 148.921 335.126 141.074C338.998 140.097 343.394 136.67 344.914 132.451C348.374 128.946 352.691 123.406 353.097 117.287C353.119 116.953 353.13 116.622 353.13 116.294C353.128 111.202 350.475 106.892 345.886 106.892C345.166 106.892 344.399 106.998 343.587 107.224C343.969 107.109 344.361 107.016 344.76 106.945C346.342 106.666 348.117 106.405 349.924 106.241C351.834 106.067 354.286 106 356.853 106C360.103 106 363.538 106.108 366.284 106.24C366.425 106.247 366.565 106.254 366.706 106.262C372.717 106.594 377.308 111.59 377.305 117.436C377.304 117.938 377.27 118.447 377.2 118.959C375.856 128.779 375.476 138.322 375.476 146.523C375.476 157.189 376.119 165.583 376.119 169.355C376.119 169.77 376.111 170.13 376.094 170.43ZM335.07 139.367C335.036 138.203 335.013 137.082 335 136C335.033 135.965 335.067 135.93 335.101 135.895C335.042 136.97 335.04 138.129 335.07 139.367Z" fill="#3F8CFF"/>
<path fill-rule="evenodd" clip-rule="evenodd" d="M334.528 142C334.505 141.316 334.485 140.648 334.472 140C334.488 140.655 334.507 141.323 334.528 142Z" fill="#9AA9B8"/>
<path fill-rule="evenodd" clip-rule="evenodd" d="M335.076 142C335.055 141.397 335.036 140.802 335.019 140.218C334.989 138.926 334.991 137.717 335.051 136.595C335.336 136.29 335.62 135.983 335.901 135.674C336.155 135.396 336.408 135.118 336.66 134.837L340.567 137.042C340.567 137.042 342.576 135.529 345 133C343.459 137.403 339.002 140.98 335.076 142Z" fill="#3576D6"/>
<path fill-rule="evenodd" clip-rule="evenodd" d="M351.198 345.589H351.195L350.936 337H350.94L351.198 345.589Z" fill="#BEBFBB"/>
<path fill-rule="evenodd" clip-rule="evenodd" d="M351 346H344.242V345.984L344 337H350.757L351 346Z" fill="#914642"/>
<path fill-rule="evenodd" clip-rule="evenodd" d="M365.931 81.7904C365.105 88.8503 364.987 93.0176 361.157 96.5053C355.398 101.75 346.699 98.1547 345.366 91.0224C344.167 84.6025 345.719 74.1374 352.91 71.6026C359.996 69.1056 366.758 74.7316 365.931 81.7904Z" fill="#BD5B52"/>
<path fill-rule="evenodd" clip-rule="evenodd" d="M351.07 84.3181C348.856 84.8133 347.854 79.6555 350.109 77.6748C348.104 76.6844 345.203 75.2503 344.237 73.0943C343.126 70.6184 346.141 67.6473 348.731 67.7711C347.895 66.1201 349.749 61.7021 355.028 63.3699C360.43 65.0753 362.807 67.6057 362.807 67.6057C362.807 67.6057 364.551 61.8843 368.227 66.5054C371.492 70.6124 370.2 74.1203 370.2 74.1203C370.2 74.1203 375.046 78.6651 373.793 82.0482C372.54 85.4323 369.783 86.6287 369.783 86.6287C369.783 86.6287 370.516 94.5813 364.62 96.4918C358.726 98.4032 355.014 94.4694 355.506 92.1995C351.696 92.4065 347.812 87.3715 351.07 84.3181Z" fill="#233862"/>
<path fill-rule="evenodd" clip-rule="evenodd" d="M353.965 84.2888C353.714 86.2465 352.688 88.0436 351.522 89.1894C349.77 90.9125 348.149 89.6799 348.013 87.4474C347.889 85.4379 348.654 82.1197 350.713 81.2339C352.741 80.3618 354.251 82.0499 353.965 84.2888Z" fill="#BD5B52"/>
<path fill-rule="evenodd" clip-rule="evenodd" d="M413 344.678L406.484 347L400 330.323L406.516 328L413 344.678Z" fill="#BD5B52"/>
<path fill-rule="evenodd" clip-rule="evenodd" d="M401.695 347.404C401.601 347.479 401.521 347.558 401.46 347.64C401.362 347.771 401.324 347.9 401.343 348.035C401.377 348.277 401.475 348.334 401.546 348.355C402.092 348.517 403.528 347.401 404.464 346.424C403.731 346.565 402.356 346.885 401.695 347.404ZM403.441 347.807C402.715 348.378 401.937 348.828 401.449 348.684C401.279 348.634 401.064 348.488 401.008 348.084C400.976 347.858 401.037 347.638 401.19 347.434C401.933 346.435 404.781 346.018 404.902 346L405.074 346.088L405.053 346.282C404.748 346.639 404.117 347.275 403.441 347.807Z" fill="#3769A4"/>
<path fill-rule="evenodd" clip-rule="evenodd" d="M401.583 345.533L401.506 345.601C401.284 345.815 401.342 345.923 401.361 345.958C401.596 346.395 403.259 346.643 404.279 346.518C403.862 346.125 402.955 345.363 402.183 345.344C401.951 345.337 401.753 345.4 401.583 345.533ZM404.737 346.764L404.673 346.795C403.754 347.023 401.455 346.851 401.064 346.123C400.972 345.952 400.934 345.68 401.273 345.353C401.526 345.108 401.834 344.991 402.193 345C403.37 345.031 404.701 346.45 404.757 346.511L404.796 346.677L404.737 346.764Z" fill="#3769A4"/>
<path fill-rule="evenodd" clip-rule="evenodd" d="M405.51 344.89L411.58 340.136C411.807 339.957 412.135 339.955 412.369 340.129L417.586 344.006C418.126 344.409 418.142 345.179 417.61 345.581C415.39 347.261 411.106 350.7 408.489 353.016C405.429 355.724 407.811 353.913 404.223 357.089C402.053 359.009 399.399 357.449 400.121 356.455C403.409 351.932 404.109 349.24 404.533 346.354C404.619 345.766 405.031 345.266 405.51 344.89Z" fill="#0A1629"/>
<path fill-rule="evenodd" clip-rule="evenodd" d="M300 132.815L297.314 127L290 131.552C290 131.552 292.41 136.504 297.4 135.958L300 132.815Z" fill="#BD5B52"/>
<path fill-rule="evenodd" clip-rule="evenodd" d="M290.626 125.599L288.876 127.077C287.74 128.035 287.704 129.746 288.796 130.751L290.155 132L298 127.248L293.293 125.21C292.402 124.826 291.364 124.976 290.626 125.599Z" fill="#BD5B52"/>
<path fill-rule="evenodd" clip-rule="evenodd" d="M403.105 339.625L403 339.354L403.105 339.625ZM409.499 337.331L407.826 333.001L407.829 333L409.502 337.33L409.499 337.331Z" fill="#BEBFBB"/>
<path fill-rule="evenodd" clip-rule="evenodd" d="M403.35 340L403.241 339.714L402 336.448L408.26 333L410 337.576L403.35 340Z" fill="#914642"/>
<path fill-rule="evenodd" clip-rule="evenodd" d="M351 171C351 171 363.066 226.417 367.681 246.988C372.735 269.516 399.326 338 399.326 338L411 331.687C411 331.687 398.512 277.957 389.384 248.646C386.074 224.417 375.955 171 375.955 171H351Z" fill="#0A1629"/>
<path fill-rule="evenodd" clip-rule="evenodd" d="M396 334.4L398.418 339L413 333.484L411.84 329L396 334.4Z" fill="#3F8CFF"/>
<path fill-rule="evenodd" clip-rule="evenodd" d="M367.614 248C367.539 247.657 367.461 247.324 367.385 247C367.387 247.001 367.388 247.001 367.39 247.002C367.461 247.3 367.536 247.606 367.615 247.919C367.614 247.946 367.614 247.974 367.614 248Z" fill="#A0A29F"/>
<path fill-rule="evenodd" clip-rule="evenodd" d="M367.568 247.795C367.567 247.794 367.565 247.794 367.563 247.793C367.518 247.593 367.473 247.397 367.431 247.205H367.433C367.477 247.398 367.521 247.595 367.568 247.795Z" fill="#939692"/>
<path fill-rule="evenodd" clip-rule="evenodd" d="M367.905 247H367.904C367.898 246.974 367.892 246.946 367.887 246.92C367.642 245.717 367.379 244.406 367.094 243H367.097C367.38 244.406 367.646 245.719 367.89 246.923C367.895 246.948 367.9 246.975 367.905 247Z" fill="#1D5697"/>
<path fill-rule="evenodd" clip-rule="evenodd" d="M367 243H366.998C366.69 241.457 366.355 239.781 366 238C366.355 239.782 366.69 241.456 367 243Z" fill="#8593A0"/>
<path fill-rule="evenodd" clip-rule="evenodd" d="M367.985 248C367.909 247.678 367.837 247.363 367.768 247.056C367.723 246.855 367.679 246.657 367.637 246.463C367.633 246.44 367.627 246.416 367.622 246.393C367.386 245.297 367.129 244.102 366.856 242.822C366.502 241.174 366.121 239.386 365.716 237.484C363.213 225.707 359.829 209.617 357 196.14C357.28 196.045 357.581 196 357.896 196C358.062 196 358.232 196.012 358.405 196.037C367.146 197.247 368.144 229.19 367.985 248Z" fill="black"/>
<path fill-rule="evenodd" clip-rule="evenodd" d="M337.621 171C337.621 171 334.552 224.707 335.056 246.613C335.579 269.397 342.009 344 342.009 344H354.237C354.237 344 356.236 270.728 357.068 248.351C357.976 223.957 363 171 363 171H337.621Z" fill="#0A1629"/>
<path fill-rule="evenodd" clip-rule="evenodd" d="M339 339L339.627 344H354.538L355 339.538L339 339Z" fill="#3F8CFF"/>
<path fill-rule="evenodd" clip-rule="evenodd" d="M348 119.367C346.343 122.325 344.444 125.126 342.448 127.827C340.425 130.509 338.241 133.047 335.948 135.455C333.662 137.871 331.257 140.15 328.789 142.314C326.355 144.48 323.729 146.546 321.408 148.441L320.584 149.112L319.911 149.354C318.117 149.993 316.294 150.103 314.734 149.921C313.163 149.743 311.79 149.336 310.554 148.851C308.083 147.866 306.094 146.546 304.252 145.171C302.427 143.771 300.784 142.271 299.256 140.692C298.493 139.902 297.771 139.079 297.062 138.253C296.342 137.419 295.687 136.602 295 135.658L298.947 131.993C300.487 133.128 302.134 134.355 303.781 135.412C305.42 136.497 307.076 137.516 308.728 138.375C310.366 139.24 312.038 139.941 313.501 140.3C314.229 140.484 314.895 140.555 315.396 140.527C315.905 140.494 316.199 140.386 316.346 140.274L314.85 141.187C317.292 138.918 319.501 136.9 321.705 134.764C323.885 132.639 325.976 130.465 327.972 128.23C329.951 125.982 331.861 123.695 333.618 121.319C335.394 118.954 336.99 116.488 338.522 114L348 119.367Z" fill="#BE5B52"/>
<path fill-rule="evenodd" clip-rule="evenodd" d="M352.967 117.242C352.281 127.438 340.409 136 340.409 136L325 127.677C325 127.677 330.676 115.662 338.321 109.99C347.766 102.984 353.489 109.482 352.967 117.242Z" fill="#3769A4"/>
<path fill-rule="evenodd" clip-rule="evenodd" d="M340.409 136L326.812 128.656L325 127.677C325 127.677 330.676 115.662 338.321 109.99C341.157 107.887 343.658 107 345.754 107C350.344 107 352.998 111.247 353 116.264C353 116.587 352.989 116.913 352.967 117.242C352.281 127.439 340.409 136 340.409 136Z" fill="#3F8CFF"/>
</g>
<defs>
<clipPath id="clip0_717_998">
<rect width="500" height="373" fill="white"/>
</clipPath>
</defs>
</svg>
